# xmcd
#
# Track frame offsets:
#	150
#	15057
#	42492
#	76868
#	117912
#	127618
#	160242
#	195149
#
# Disc length: 2900 seconds
#
# Revision: 0
# Processed by: cddbd v1.5.1PL0 Copyright (c) Steve Scherf et al.
# Submitted via: dBpowerAMP V4.0
#
DISCID=490b5208
DTITLE=Lonie Walker - Isadora, I Love You
DYEAR=2002
DGENRE=Blues
TTITLE0=0verture/Voice Of Isadora/Que Sera, Sera
TTITLE1=Who's Gonna Tell Her The Ship Is Sinking? (Ghosts)
TTITLE2=Summer Solstice
TTITLE3=Song For Raphael
TTITLE4=Reaching Out For A Rainbow
TTITLE5=The Feel Good Song/Reaching Out For A Rainbow
TTITLE6=On the Avenue Of The Heart
TTITLE7=Dreamin'
EXTD=
EXTT0=
EXTT1=
EXTT2=
EXTT3=
EXTT4=
EXTT5=
EXTT6=
EXTT7=
PLAYORDER=
